<svg width="93" height="25" viewBox="0 0 93 25" fill="" xmlns="http://www.w3.org/2000/svg">
    <path fill-rule="evenodd" clip-rule="evenodd" d="M23.3417 5.53312C25.5607 5.53312 27.3309 6.09431 28.6539 7.21744C29.9761 8.34057 30.7045 9.85528 30.8393 11.7608H26.3336C26.2666 11.0116 25.9585 10.4165 25.4099 9.97474C24.8599 9.53154 24.1256 9.31104 23.2077 9.31104C22.3554 9.31104 21.6997 9.46885 21.2401 9.78743C20.7811 10.1045 20.5509 10.5477 20.5509 11.1141C20.5509 11.7498 20.8656 12.2321 21.4921 12.5617C22.1201 12.8899 23.0955 13.2247 24.4184 13.5654C25.7632 13.9046 26.8727 14.2578 27.7469 14.6206C28.6211 14.9835 29.3758 15.5439 30.0147 16.3042C30.6535 17.0645 30.9843 18.0689 31.0069 19.3167C31.0069 20.4052 30.7096 21.3815 30.1159 22.2443C29.5222 23.1057 28.6699 23.7812 27.5604 24.2686C26.4509 24.7561 25.1571 24.9994 23.6783 24.9994C22.1528 24.9994 20.7862 24.7214 19.5769 24.1661C18.3662 23.6108 17.4075 22.8564 16.7016 21.9036C15.9957 20.9509 15.6096 19.8956 15.5411 18.7378H20.2828C20.3717 19.4649 20.725 20.0659 21.3413 20.5423C21.9569 21.0187 22.7247 21.2569 23.6441 21.2569C24.5401 21.2569 25.2416 21.0755 25.745 20.7127C26.2499 20.3498 26.5019 19.8845 26.5019 19.3167C26.5019 18.7046 26.1938 18.2444 25.5767 17.9384C24.9612 17.6309 23.9806 17.2976 22.6358 16.9347C21.2459 16.594 20.1087 16.2423 19.2243 15.8795C18.3378 15.5166 17.5758 14.9599 16.9369 14.2121C16.298 13.4629 15.9789 12.4533 15.9789 11.1819C15.9789 10.1392 16.2762 9.18641 16.8699 8.32361C17.4636 7.4608 18.3159 6.78087 19.4254 6.28088C20.5349 5.78237 21.8396 5.53312 23.3417 5.53312ZM51.1787 5.53356C52.5672 5.53356 53.7837 5.81747 54.8262 6.38383C55.8687 6.95166 56.7028 7.66625 57.3307 8.52758V5.8396H62.071V24.6938H57.3307V21.9365C56.7261 22.8215 55.8905 23.5537 54.8262 24.1312C53.7619 24.7101 52.5344 24.9999 51.1444 24.9999C49.5753 24.9999 48.1474 24.5913 46.8588 23.7742C45.5686 22.9586 44.5495 21.8067 43.7984 20.3208C43.0473 18.8348 42.6729 17.1269 42.6729 15.1978C42.6729 13.2922 43.0473 11.6027 43.7984 10.1271C44.5495 8.65369 45.5686 7.5195 46.8588 6.72453C48.1474 5.93104 49.5862 5.53356 51.1787 5.53356ZM83.8218 5.53319C85.592 5.53319 87.1794 5.91814 88.5795 6.6895C89.979 7.46087 91.0666 8.55671 91.841 9.97482C92.6139 11.3929 93 13.0197 93 14.8589C93 15.5388 92.9548 16.1509 92.8659 16.6966H79.2498C79.362 18.0579 79.8326 19.1243 80.6616 19.8957C81.4906 20.667 82.5113 21.052 83.7205 21.052C85.4689 21.052 86.7139 20.2931 87.4526 18.7725H92.5294C91.9918 20.5881 90.9602 22.0792 89.4362 23.2481C87.9122 24.4169 86.0408 24.9995 83.8218 24.9995C82.0283 24.9995 80.4212 24.5969 78.997 23.7923C77.5743 22.9863 76.4648 21.8469 75.6686 20.372C74.8738 18.8972 74.4761 17.1951 74.4761 15.266C74.4761 13.3162 74.8673 11.6031 75.6526 10.1267C76.4364 8.65332 77.535 7.51913 78.9475 6.72416C80.3593 5.93067 81.9846 5.53319 83.8218 5.53319ZM14.2974 0.903809V4.78424H5.38808V10.7406H13.29V14.5178H5.38808V20.8133H14.2974V24.6938H0.682068V0.903809H14.2974ZM38.3362 1.17652V5.83938H42.5046V9.75299H38.3362V18.8744C38.3362 19.5094 38.487 19.9688 38.7893 20.2527C39.0924 20.5366 39.6016 20.6775 40.3199 20.6775H42.5046V24.6936H39.5455C35.5782 24.6936 33.5945 22.7423 33.5945 18.8405V9.75299H31.3755V5.83938H33.5945V1.17652H38.3362ZM70.1406 1.17652V5.83938H74.309V9.75299H70.1406V18.8744C70.1406 19.5094 70.2914 19.9688 70.5938 20.2527C70.8968 20.5366 71.406 20.6775 72.1243 20.6775H74.309V24.6936H71.3499C67.3826 24.6936 65.3989 22.7423 65.3989 18.8405V9.75299H63.18V5.83938H65.3989V1.17652H70.1406ZM52.388 9.72003C51.5138 9.72003 50.7081 9.93463 49.9679 10.3668C49.2278 10.7974 48.629 11.4272 48.1693 12.2539C47.7096 13.0835 47.4802 14.0636 47.4802 15.1978C47.4802 16.3334 47.7096 17.3253 48.1693 18.177C48.629 19.0273 49.2336 19.6792 49.9847 20.1335C50.7358 20.5877 51.5371 20.8134 52.388 20.8134C53.2621 20.8134 54.0802 20.5936 54.8437 20.1504C55.6042 19.7087 56.2103 19.073 56.6591 18.2449C57.1064 17.4167 57.3307 16.4234 57.3307 15.2656C57.3307 14.1093 57.1064 13.1167 56.6591 12.2885C56.2103 11.4604 55.6042 10.8247 54.8437 10.383C54.0802 9.93979 53.2621 9.72003 52.388 9.72003ZM83.6878 9.44681C82.5222 9.44681 81.5416 9.80447 80.7454 10.519C79.9506 11.2336 79.4625 12.2262 79.2833 13.4961H88.1257C88.1024 12.272 87.666 11.2904 86.8137 10.5537C85.9628 9.81553 84.9204 9.44681 83.6878 9.44681Z" />
</svg>