<svg width="24" height="24" viewBox="0 0 24 24" fill="none" xmlns="http://www.w3.org/2000/svg">
<path d="M18.8017 15.0244C18.8017 13.8146 17.8102 12.839 16.5807 12.839H16.3031L17.2153 5.54146V5.50244C17.2946 4.05854 16.779 2.69268 15.7479 1.63902C14.7167 0.585366 13.3683 0 11.9009 0C10.4334 0 9.04533 0.585366 8.05382 1.63902C7.02266 2.69268 6.50708 4.05854 6.5864 5.50244V5.54146L7.49858 12.839H7.22096C5.9915 12.839 5 13.8146 5 15.0244V16.7024C5 17.2878 5.23796 17.8341 5.63456 18.2244V23.2976C5.63456 23.6878 5.95184 24 6.34844 24C6.74504 24 7.06232 23.6878 7.06232 23.2976V18.8878C7.14164 18.8878 7.22096 18.8878 7.26062 18.8878H8.92635V22.2049C8.92635 22.5951 9.24363 22.9073 9.64023 22.9073C10.0368 22.9073 10.3541 22.5951 10.3541 22.2049V18.8878H13.6459V22.2049C13.6459 22.5951 13.9632 22.9073 14.3598 22.9073C14.7564 22.9073 15.0737 22.5951 15.0737 22.2049V18.8878H16.7394C16.8187 18.8878 16.898 18.8878 16.9377 18.8878V23.2976C16.9377 23.6878 17.255 24 17.6516 24C18.0482 24 18.3654 23.6878 18.3654 23.2976V18.2634C18.762 17.8732 19 17.3268 19 16.7415V15.0244H18.8017ZM7.89518 5.38537C7.85552 4.33171 8.25212 3.31707 8.96601 2.53659C9.71955 1.7561 10.7507 1.32683 11.8215 1.32683C12.932 1.32683 13.9235 1.7561 14.6771 2.53659C15.4306 3.31707 15.8272 4.33171 15.7479 5.38537L14.8357 12.8H8.84703L7.89518 5.38537ZM7.1813 17.561C7.02266 17.561 6.86402 17.522 6.74504 17.4439C6.70538 17.4049 6.66572 17.4049 6.62606 17.3659C6.42776 17.2098 6.30878 16.9756 6.30878 16.7415V15.0634C6.30878 14.5951 6.70538 14.2439 7.14164 14.2439H8.1728H15.4703H16.5014C16.9773 14.2439 17.3343 14.6341 17.3343 15.0634V16.7415C17.3343 17.0146 17.2153 17.2098 17.017 17.3659C16.9773 17.4049 16.9377 17.4049 16.898 17.4439C16.779 17.522 16.6204 17.561 16.4618 17.561H7.1813Z" fill="white"/>
</svg>
